<?xml version="1.0" standalone="no"?>
<!DOCTYPE svg PUBLIC "-//W3C//DTD SVG 20010904//EN"
 "http://www.w3.org/TR/2001/REC-SVG-20010904/DTD/svg10.dtd">
<svg version="1.0" xmlns="http://www.w3.org/2000/svg"
 width="202.000000pt" height="202.000000pt" viewBox="0 0 202.000000 202.000000"
 preserveAspectRatio="xMidYMid meet">
<metadata>
Created by potrace 1.14, written by Peter Selinger 2001-2017
</metadata>
<g transform="translate(0.000000,202.000000) scale(0.100000,-0.100000)"
fill="#000000" stroke="none">
<path d="M810 2000 c-112 -24 -187 -51 -277 -100 -328 -177 -533 -519 -533
-890 0 -556 454 -1010 1010 -1010 556 0 1010 454 1010 1010 0 488 -347 903
-833 995 -107 20 -271 18 -377 -5z m400 -95 c158 -33 303 -112 431 -233 134
-127 219 -271 265 -452 29 -113 27 -335 -4 -448 -91 -335 -343 -582 -682 -668
-109 -28 -334 -25 -445 5 -339 92 -595 360 -672 705 -25 115 -21 299 10 419
81 306 309 551 604 646 54 18 125 36 158 41 80 12 242 5 335 -15z"/>
<path d="M815 1863 c-337 -72 -614 -362 -675 -709 -20 -113 -9 -299 25 -404
78 -241 232 -424 450 -533 443 -221 977 -35 1190 414 100 211 110 470 26 685
-107 276 -356 489 -639 550 -86 18 -287 17 -377 -3z m73 -62 c0 -16 6 -47 12
-70 13 -50 0 -81 -34 -81 -31 0 -41 14 -55 80 -18 84 -18 85 5 88 19 3 22 -3
28 -48 9 -68 24 -106 37 -93 10 10 -6 109 -22 129 -10 12 -2 24 16 24 7 0 12
-13 13 -29z m275 -26 c-2 -46 -2 -48 8 -20 6 17 11 38 11 48 -1 9 6 17 14 17
19 0 18 -4 -15 -90 -39 -103 -55 -100 -59 13 -3 87 -2 88 20 85 21 -3 23 -8
21 -53z m140 10 c11 -5 10 -14 -9 -52 -13 -25 -26 -61 -30 -80 -5 -29 -9 -33
-28 -27 -29 9 -29 9 -17 31 19 33 41 95 41 114 0 19 16 24 43 14z m95 -44 c9
-6 12 -20 7 -47 -5 -29 -4 -35 4 -24 6 8 11 23 11 33 0 9 6 17 14 17 19 0 29
-17 16 -25 -5 -3 -26 -35 -45 -70 -26 -46 -40 -62 -51 -58 -10 4 -14 14 -10
27 2 11 7 35 10 51 5 26 3 24 -14 -12 -14 -29 -25 -40 -35 -37 -18 7 -19 20
-2 27 6 2 26 32 42 65 32 65 33 66 53 53z m-786 -101 c38 -55 45 -70 34 -79
-11 -9 -21 -5 -45 15 -40 33 -49 27 -15 -9 14 -15 22 -32 19 -37 -9 -14 -25
-12 -25 3 0 6 -20 38 -45 69 -38 49 -42 58 -29 69 12 10 20 8 44 -10 17 -12
30 -17 30 -12 0 5 -9 17 -21 25 -19 13 -19 37 -1 36 4 -1 28 -32 54 -70z m946
-27 c3 -25 -5 -40 -34 -72 -37 -42 -69 -52 -92 -29 -21 21 -13 47 30 94 32 34
47 44 67 42 21 -2 27 -9 29 -35z m-400 -4 c287 -70 487 -343 469 -639 -7 -103
-21 -158 -62 -243 -124 -252 -414 -392 -688 -331 -123 27 -211 76 -303 168
-127 127 -186 264 -187 436 0 108 15 174 65 280 122 256 425 397 706 329z
m-650 -62 c17 -17 32 -39 32 -48 0 -59 -42 -65 -100 -13 -51 46 -59 72 -30 96
26 21 46 14 98 -35z m1149 -17 c36 -45 36 -53 -3 -80 -20 -13 -49 -36 -65 -51
l-29 -27 -31 39 c-17 22 -30 41 -28 42 46 31 119 90 119 97 0 17 14 10 37 -20z
m-1215 -112 c32 -14 35 -29 12 -49 -13 -11 -17 -11 -25 3 -5 9 -32 31 -61 49
-29 18 -54 34 -56 35 -2 1 1 12 8 23 11 21 12 21 52 -14 23 -19 54 -40 70 -47z
m1306 -23 c24 -53 11 -85 -34 -85 -8 0 -23 -8 -33 -17 -35 -32 -52 -45 -55
-42 -6 9 -46 90 -46 94 0 3 7 5 15 5 20 0 119 49 123 61 6 16 19 9 30 -16z
m-1411 -46 c30 -28 57 -48 61 -44 4 4 -2 13 -12 21 -26 19 -12 30 19 16 l26
-12 -22 -41 -21 -42 -59 59 c-32 32 -59 53 -59 46 0 -7 7 -15 15 -18 23 -9 6
-26 -18 -18 -12 3 -23 7 -25 9 -4 4 28 75 35 75 3 0 30 -23 60 -51z m-101 -87
c5 -5 39 -17 77 -27 37 -9 67 -21 67 -26 0 -13 -36 -29 -66 -29 -37 0 -24 -11
15 -12 23 -1 31 -6 31 -20 0 -10 -4 -18 -10 -18 -5 0 -10 4 -10 8 0 8 -99 36
-130 37 -8 0 -14 3 -12 8 1 4 2 14 2 22 0 11 12 15 48 16 44 1 45 1 17 10 -16
5 -36 7 -42 4 -8 -2 -13 4 -13 15 0 21 10 25 26 12z m1577 -34 c4 -12 5 -22 4
-23 -30 -10 -134 -63 -139 -70 -5 -6 -12 -4 -18 5 -15 23 -12 37 10 43 11 3
20 11 20 17 0 8 -9 10 -25 6 -18 -5 -25 -2 -25 8 0 10 22 16 78 23 42 6 80 11
83 12 4 0 9 -9 12 -21z m27 -152 c0 -44 -20 -59 -83 -64 -62 -4 -84 9 -89 56
l-3 33 74 4 c41 3 76 7 79 10 11 11 22 -8 22 -39z m-1613 22 c-2 -7 -10 -12
-16 -10 -6 1 -11 -2 -11 -8 0 -5 9 -10 20 -10 11 0 20 5 20 10 0 6 11 10 25
10 26 0 34 -15 13 -23 -7 -3 2 -6 20 -6 17 -1 32 4 32 9 0 6 -7 10 -15 10 -8
0 -15 5 -15 10 0 6 12 10 26 10 23 0 25 -3 22 -42 -2 -32 -7 -42 -18 -39 -8 2
-48 6 -87 9 -40 2 -73 8 -73 12 0 4 3 22 6 39 5 25 12 31 31 31 16 0 23 -5 20
-12z m47 -149 c12 -17 21 -20 45 -16 28 6 31 4 31 -17 0 -21 -5 -24 -67 -29
-38 -3 -76 -9 -85 -12 -16 -6 -18 -1 -18 37 0 53 4 58 46 58 22 0 38 -7 48
-21z m1566 -23 c0 -23 -3 -27 -17 -21 -30 13 -143 18 -143 7 0 -11 51 -22 113
-24 28 -1 37 -5 37 -19 0 -14 -5 -16 -27 -8 -16 5 -49 11 -75 14 -58 7 -76 25
-59 61 11 24 14 25 91 22 l80 -3 0 -29z m-1510 -175 c7 -15 6 -24 -6 -36 -19
-18 -33 -16 -48 7 -7 12 -6 21 3 32 18 22 38 20 51 -3z m1410 0 c7 -15 6 -24
-6 -36 -19 -18 -33 -16 -48 7 -7 12 -6 21 3 32 18 22 38 20 51 -3z m-1301
-191 l-34 -32 39 21 c23 13 43 18 48 13 8 -8 -129 -82 -153 -82 -19 0 -7 24
44 85 50 61 53 62 71 45 18 -18 18 -19 -15 -50z m1185 31 c10 -11 16 -31 14
-47 -2 -22 2 -31 20 -39 26 -11 27 -15 9 -39 -12 -16 -16 -15 -52 18 -21 20
-52 42 -67 48 -34 15 -35 25 -6 55 26 28 59 30 82 4z m-1074 -86 c10 -12 7
-19 -17 -39 -17 -14 -41 -41 -54 -60 -26 -38 -40 -44 -58 -22 -9 10 1 26 46
73 32 33 61 61 64 62 4 0 12 -6 19 -14z m961 -28 c-7 -7 -15 -6 -26 3 -8 7
-15 8 -15 3 0 -15 22 -32 35 -27 18 7 42 -25 27 -35 -9 -5 -7 -13 8 -26 20
-18 20 -18 18 1 -4 26 12 33 26 12 8 -14 5 -22 -14 -43 -28 -29 -46 -32 -54
-7 -3 9 -26 38 -50 64 l-45 46 32 25 c29 23 33 24 50 9 11 -10 14 -19 8 -25z
m-883 -69 c-13 -37 -2 -49 13 -14 7 14 15 26 19 26 20 0 14 -18 -28 -78 -25
-37 -46 -68 -47 -70 -1 -1 -9 0 -18 4 -14 5 -14 10 -1 46 18 52 10 62 -12 14
-10 -20 -21 -36 -25 -36 -16 0 -20 22 -7 33 16 14 61 83 71 110 5 14 10 15 26
6 16 -10 17 -17 9 -41z m742 -2 c0 -16 48 -103 61 -111 12 -8 11 2 -1 26 -15
27 11 26 28 -1 15 -25 10 -35 -27 -55 l-28 -14 -33 62 c-18 34 -39 66 -47 70
-12 7 -12 11 4 23 23 17 43 18 43 0z m-610 -69 c1 -27 2 -29 11 -14 5 9 7 22
4 27 -3 6 3 10 14 10 21 0 28 -14 12 -24 -5 -3 -19 -35 -32 -71 -16 -47 -27
-65 -38 -62 -12 2 -16 15 -14 52 l2 50 -17 -42 c-9 -24 -22 -43 -29 -43 -16 0
-16 10 0 32 7 9 22 44 32 76 17 52 22 59 37 51 11 -6 18 -22 18 -42z m513 9
c-5 -35 18 -83 55 -113 13 -11 11 -14 -14 -23 -16 -6 -41 -14 -56 -17 -23 -4
-28 -2 -28 14 0 28 -31 117 -44 125 -12 8 -8 13 20 22 15 5 23 0 32 -21 l11
-28 -3 32 c-2 29 4 40 26 42 4 1 4 -14 1 -33z m-345 15 c11 -6 8 -10 -10 -14
-19 -5 -24 -14 -26 -44 -2 -28 0 -34 8 -23 5 8 10 23 10 33 0 9 7 17 15 17 20
0 19 -2 -10 -60 -14 -27 -25 -63 -25 -80 0 -28 -3 -31 -22 -24 -31 9 -30 8
-17 37 8 18 9 41 2 81 -9 50 -8 56 7 56 10 0 23 7 30 15 14 17 20 18 38 6z
m212 -56 c0 -29 -8 -32 -26 -7 -7 9 -14 12 -14 6 0 -6 11 -21 24 -34 30 -27
43 -75 26 -95 -7 -8 -25 -15 -41 -15 -26 0 -29 4 -29 30 0 34 15 40 23 10 3
-11 10 -20 16 -20 17 0 13 13 -13 41 -56 60 -54 109 4 109 25 0 30 -4 30 -25z"/>
<path d="M1491 1584 c-36 -41 -49 -64 -37 -64 9 0 88 101 83 106 -2 3 -23 -16
-46 -42z"/>
<path d="M860 1564 c-178 -47 -329 -184 -397 -362 -34 -89 -43 -238 -19 -332
28 -111 72 -187 156 -272 59 -59 96 -86 153 -114 270 -128 577 -43 739 205
155 238 118 542 -91 738 -65 61 -163 116 -247 138 -73 19 -221 19 -294 -1z
m342 -61 c79 -39 96 -170 28 -210 -36 -21 -38 -35 -6 -65 21 -19 26 -36 31
-96 3 -40 3 -78 -1 -84 -4 -6 -8 -28 -8 -47 -1 -27 -7 -38 -22 -45 -11 -5 -26
-22 -32 -38 -5 -15 -21 -32 -35 -37 -31 -12 -37 -28 -23 -63 8 -22 7 -31 -9
-47 -10 -12 -26 -21 -36 -21 -23 0 -41 -31 -28 -51 13 -21 11 -55 -6 -69 -11
-9 -13 -23 -9 -51 5 -29 3 -40 -8 -44 -9 -4 -15 -18 -15 -32 0 -29 -26 -53
-55 -53 -21 0 -68 42 -68 61 0 6 -12 20 -26 32 -21 16 -25 27 -22 53 3 27 0
34 -19 39 -26 6 -41 48 -24 69 8 10 7 21 -5 45 -16 31 -15 34 4 61 l21 28 -22
5 c-12 2 -29 7 -38 11 -11 5 -29 -6 -57 -34 -23 -22 -46 -40 -50 -40 -12 0
-32 154 -28 223 4 71 23 120 60 160 21 21 36 27 70 27 28 0 52 7 67 19 23 18
23 18 -49 16 -40 -1 -72 1 -72 4 0 30 94 118 140 131 68 19 190 3 213 -29 23
-33 53 -43 98 -31 78 21 100 76 57 140 -31 45 -50 51 -42 12 9 -45 -32 -87
-84 -87 -100 0 -148 94 -69 137 52 28 125 29 179 1z"/>
<path d="M1052 1501 c-7 -4 13 -6 45 -4 79 6 89 11 23 12 -30 0 -61 -3 -68 -8z"/>
<path d="M1010 1475 c-7 -9 -11 -17 -9 -20 3 -2 10 5 17 15 14 24 10 26 -8 5z"/>
<path d="M1224 1456 c28 -41 34 -91 15 -129 -10 -21 -10 -21 5 -3 30 37 14
120 -30 156 -9 8 -5 -3 10 -24z"/>
<path d="M1078 1473 c7 -3 16 -2 19 1 4 3 -2 6 -13 5 -11 0 -14 -3 -6 -6z"/>
<path d="M1125 1470 c16 -7 12 -9 -19 -9 -31 -1 -37 -4 -28 -13 17 -17 15 -28
-7 -28 -11 0 -27 10 -35 22 -12 16 -16 18 -16 7 0 -24 33 -49 65 -49 33 0 66
26 58 46 -3 8 1 14 8 14 11 0 11 3 -1 10 -8 5 -22 9 -30 9 -10 0 -8 -3 5 -9z"/>
<path d="M1000 1433 c0 -5 10 -18 23 -29 l22 -19 -20 25 c-11 14 -21 27 -22
29 -2 2 -3 0 -3 -6z"/>
<path d="M1145 1409 c-4 -6 -17 -14 -29 -19 -14 -6 -16 -9 -5 -9 9 -1 24 8 34
19 10 11 15 20 12 20 -3 0 -9 -5 -12 -11z"/>
<path d="M833 1343 c-7 -2 -13 -11 -13 -19 0 -8 -6 -14 -13 -14 -7 0 -26 -13
-42 -30 l-29 -30 30 -2 c16 -1 42 -2 59 -2 66 -2 31 -66 -36 -66 -63 0 -115
-47 -125 -110 -1 -8 -7 -30 -12 -47 -6 -19 -7 -33 -2 -33 5 0 9 -15 8 -32 -1
-18 -1 -58 0 -88 l2 -55 30 53 c16 29 56 91 89 138 34 46 61 86 61 88 0 4 -49
-9 -135 -34 -28 -9 -29 -8 -11 5 11 8 27 15 35 15 10 1 7 6 -9 15 -29 17 -18
19 28 5 47 -13 101 11 143 63 19 23 56 65 83 94 l49 53 -40 0 c-31 0 -46 -7
-68 -30 -16 -16 -31 -28 -33 -25 -3 3 5 17 19 31 l24 26 -40 -7 c-22 -4 -59
-16 -83 -26 -23 -10 -40 -14 -37 -9 6 9 74 35 119 45 l29 6 -28 15 c-29 15
-33 15 -52 7z"/>
<path d="M925 1336 c28 -8 68 -14 90 -15 71 -1 13 20 -68 24 l-72 4 50 -13z"/>
<path d="M1185 1295 c-16 -8 -23 -14 -14 -15 8 0 24 7 35 15 23 18 18 18 -21
0z"/>
<path d="M1060 1286 c0 -8 11 -27 24 -43 25 -31 46 -67 46 -80 -1 -4 -7 3 -15
17 -14 25 -14 24 -15 -20 -1 -25 -8 -61 -16 -80 -13 -33 -14 -33 -9 -5 15 77
17 133 5 155 -15 27 -27 16 -33 -30 -2 -21 -4 -10 -5 29 -2 63 -2 63 -24 49
-13 -8 -49 -46 -80 -83 -66 -78 -73 -110 -35 -166 33 -49 42 -69 17 -36 -24
30 -39 28 -41 -6 -1 -18 -2 -18 -6 -4 -3 10 1 24 7 32 9 11 9 15 1 15 -6 0
-11 14 -11 30 0 40 -11 38 -41 -7 -14 -21 -46 -67 -71 -103 -25 -36 -54 -78
-64 -95 l-19 -30 25 18 c44 31 132 68 148 62 9 -3 37 9 64 27 l49 33 -6 68
c-8 75 2 97 41 97 16 0 24 -6 25 -17 2 -35 5 -48 18 -80 l13 -32 34 22 c18 12
34 30 34 40 0 9 5 17 10 17 6 0 10 9 10 20 0 11 4 20 9 20 15 0 19 64 6 96 -7
17 -28 43 -47 58 -40 30 -48 32 -48 12z"/>
<path d="M1158 1264 c-3 -3 3 -22 13 -43 21 -43 69 -64 69 -30 0 27 -21 35
-37 13 -13 -18 -14 -17 -8 9 9 35 -17 71 -37 51z"/>
<path d="M1185 1160 c-9 -15 13 -40 35 -40 24 0 31 10 19 31 -11 20 -44 26
-54 9z"/>
<path d="M1180 1115 c0 -8 -7 -15 -15 -15 -10 0 -15 -10 -15 -30 0 -50 50 -38
63 15 4 15 5 13 6 -7 1 -18 7 -28 16 -28 22 0 20 49 -2 56 -10 3 -26 10 -35
15 -14 7 -18 5 -18 -6z"/>
<path d="M974 1105 c-9 -23 4 -62 22 -69 22 -8 22 -8 12 42 -9 43 -24 54 -34
27z"/>
<path d="M1130 1040 c0 -6 -11 -16 -25 -22 -14 -6 -25 -17 -25 -25 0 -16 42
-17 58 -1 15 15 16 45 2 53 -5 3 -10 1 -10 -5z"/>
<path d="M1178 1033 c-16 -4 -33 -47 -24 -61 2 -4 -10 -7 -27 -7 -24 0 -32 -4
-31 -17 1 -10 -2 -16 -6 -13 -4 3 -13 -2 -20 -10 -9 -10 -9 -15 -1 -15 6 0 11
-4 11 -10 0 -5 -7 -10 -16 -10 -8 0 -12 5 -9 10 3 6 -1 10 -9 10 -21 0 -21
-34 0 -54 31 -32 91 -5 81 36 -4 15 -2 17 8 8 27 -22 67 19 44 46 -9 11 -7 14
14 14 32 0 51 23 43 55 -6 24 -19 28 -58 18z"/>
<path d="M986 1002 c-2 -4 -1 -23 3 -42 6 -30 11 -35 38 -38 38 -4 61 26 44
56 -6 9 -11 11 -11 5 0 -22 -20 -14 -20 7 0 15 -7 20 -24 20 -14 0 -27 -3 -30
-8z"/>
<path d="M951 935 c-27 -29 -25 -36 7 -24 13 5 22 17 22 29 0 25 0 25 -29 -5z"/>
<path d="M952 899 c-36 -14 -26 -59 18 -81 20 -10 28 -18 18 -18 -19 0 -24
-15 -9 -24 9 -6 39 22 41 39 3 16 4 15 30 -21 30 -40 56 -43 72 -9 8 19 8 28
-2 40 -7 8 -16 12 -21 9 -16 -10 -69 7 -69 22 0 15 -35 54 -47 53 -5 0 -18 -4
-31 -10z"/>
<path d="M870 891 c-34 -9 -38 -44 -8 -65 23 -16 23 -16 -9 -10 -24 5 -33 2
-41 -13 -14 -26 6 -67 36 -71 18 -3 22 1 22 22 0 13 12 37 28 53 20 21 26 36
24 61 -3 33 -9 35 -52 23z"/>
<path d="M796 879 c-15 -9 -16 -13 -5 -20 23 -15 39 -10 39 11 0 23 -7 24 -34
9z"/>
<path d="M892 788 c-18 -18 -14 -56 7 -70 18 -11 18 -12 -2 -28 -28 -23 -17
-67 20 -76 52 -13 83 39 44 72 -20 18 -20 18 -1 31 25 18 26 45 2 66 -22 20
-53 22 -70 5z m33 -8 c-3 -5 -10 -10 -16 -10 -5 0 -9 5 -9 10 0 6 7 10 16 10
8 0 12 -4 9 -10z m0 -110 c-3 -5 -10 -10 -16 -10 -5 0 -9 5 -9 10 0 6 7 10 16
10 8 0 12 -4 9 -10z"/>
<path d="M1020 785 c0 -8 -6 -15 -14 -15 -17 0 -27 -47 -12 -54 6 -2 3 -5 -8
-5 -13 -1 -16 -6 -11 -18 4 -10 10 -31 13 -46 4 -23 9 -28 30 -25 38 5 51 32
30 68 -9 17 -13 30 -8 30 16 0 23 49 10 65 -16 19 -30 19 -30 0z"/>
<path d="M845 711 c-31 -7 -45 -35 -26 -54 22 -22 42 -15 56 20 21 49 24 46
-30 34z"/>
<path d="M865 610 c-11 -18 4 -58 25 -65 22 -7 70 20 70 40 0 7 -12 15 -27 17
-16 3 -35 8 -44 12 -10 4 -20 2 -24 -4z"/>
<path d="M987 599 c-25 -14 -21 -34 9 -48 30 -13 44 -7 44 19 0 25 -30 41 -53
29z"/>
<path d="M930 540 c-11 -11 -20 -24 -20 -30 0 -13 37 -50 51 -50 47 0 66 57
27 84 -29 20 -34 20 -58 -4z m30 -9 c0 -6 -4 -13 -10 -16 -5 -3 -10 1 -10 9 0
9 5 16 10 16 6 0 10 -4 10 -9z"/>
<path d="M420 1561 c0 -12 92 -93 98 -86 6 5 -82 95 -93 95 -3 0 -5 -4 -5 -9z"/>
<path d="M1622 1498 c-19 -19 -14 -29 8 -16 20 13 27 28 12 28 -4 0 -13 -5
-20 -12z"/>
<path d="M1555 1440 c-10 -11 -14 -20 -8 -20 5 0 18 9 28 20 10 11 14 20 8 20
-5 0 -18 -9 -28 -20z"/>
<path d="M1710 1355 c-14 -8 -20 -14 -14 -15 5 0 19 7 30 15 24 18 16 19 -16
0z"/>
<path d="M1630 1320 c-24 -15 -7 -19 20 -5 15 8 19 14 10 14 -8 1 -22 -3 -30
-9z"/>
<path d="M1710 1210 c0 -13 11 -13 30 0 12 8 11 10 -7 10 -13 0 -23 -4 -23
-10z"/>
<path d="M1710 1060 c-19 -6 -12 -8 30 -9 30 0 62 4 70 9 19 12 -62 12 -100 0z"/>
<path d="M215 930 c-17 -7 -14 -9 13 -9 20 -1 31 3 27 9 -7 12 -13 12 -40 0z"/>
<path d="M1580 560 c14 -10 27 -17 29 -14 6 5 -31 33 -44 33 -5 1 1 -8 15 -19z"/>
</g>
</svg>
