<?xml version="1.0" standalone="no"?>
<!DOCTYPE svg PUBLIC "-//W3C//DTD SVG 20010904//EN"
 "http://www.w3.org/TR/2001/REC-SVG-20010904/DTD/svg10.dtd">
<svg version="1.0" xmlns="http://www.w3.org/2000/svg"
 width="4096.000000pt" height="4096.000000pt" viewBox="0 0 4096.000000 4096.000000"
 preserveAspectRatio="xMidYMid meet">
<metadata>
Created by potrace 1.14, written by Peter Selinger 2001-2017
</metadata>
<g transform="translate(0.000000,4096.000000) scale(0.100000,-0.100000)"
fill="#000000" stroke="none">
<path d="M25555 40300 c-171 -27 -237 -38 -261 -44 -12 -2 -37 -7 -55 -10 -60
-10 -95 -17 -269 -57 -153 -36 -215 -51 -245 -60 -16 -5 -79 -23 -139 -40
-190 -53 -451 -142 -636 -216 -100 -40 -120 -49 -183 -77 -32 -14 -59 -26 -62
-26 -6 0 -209 -96 -316 -149 -455 -228 -893 -518 -1279 -845 -52 -44 -108 -92
-125 -106 -16 -14 -118 -113 -226 -220 -164 -164 -222 -226 -344 -364 -5 -6
-27 -32 -48 -58 -21 -26 -43 -53 -50 -60 -7 -7 -25 -31 -41 -53 -17 -22 -33
-42 -36 -45 -16 -14 -158 -212 -236 -330 -49 -74 -91 -137 -94 -140 -3 -3 -14
-21 -24 -40 -10 -19 -32 -54 -48 -78 -15 -24 -28 -45 -28 -47 0 -2 -14 -28
-32 -57 -94 -159 -263 -515 -345 -728 -55 -144 -145 -415 -167 -505 -2 -5 -8
-30 -15 -55 -7 -25 -14 -52 -16 -60 -2 -8 -8 -33 -13 -55 -6 -22 -13 -51 -16
-65 -2 -14 -9 -45 -15 -70 -5 -25 -12 -61 -16 -80 -3 -19 -8 -46 -10 -60 -13
-62 -15 -77 -20 -113 -3 -21 -7 -48 -10 -60 -6 -32 -14 -91 -21 -156 -3 -31
-7 -66 -9 -78 -4 -22 -15 -176 -19 -268 -1 -27 -5 -52 -8 -55 -3 -3 -27 22
-54 55 -26 33 -51 62 -54 65 -3 3 -36 41 -75 85 -158 182 -341 363 -550 544
-227 196 -572 448 -745 544 -172 95 -404 96 -591 2 -75 -38 -93 -51 -158 -116
-60 -59 -71 -74 -108 -139 -61 -107 -78 -180 -78 -325 1 -162 58 -306 169
-424 28 -29 119 -99 201 -154 319 -214 536 -394 775 -643 164 -172 277 -310
425 -519 126 -178 279 -448 384 -677 130 -286 261 -726 305 -1023 25 -167 24
-161 32 -245 3 -41 8 -88 11 -105 2 -16 5 -426 7 -911 l2 -881 -78 110 c-347
484 -781 851 -1278 1080 -70 33 -155 66 -292 116 -110 39 -382 102 -508 116
-30 3 -89 10 -130 14 -76 9 -467 7 -506 -2 -11 -3 -45 -8 -75 -11 -30 -3 -65
-8 -79 -11 -13 -2 -42 -7 -65 -10 -22 -4 -56 -10 -75 -15 -19 -5 -46 -11 -60
-14 -181 -36 -538 -171 -700 -266 -8 -5 -55 -32 -105 -61 -73 -42 -196 -122
-250 -161 -161 -118 -435 -371 -545 -505 -30 -36 -60 -71 -65 -77 -6 -6 -24
-29 -40 -51 -17 -22 -32 -42 -35 -45 -36 -35 -195 -277 -276 -420 -118 -206
-245 -496 -309 -702 -15 -49 -29 -88 -30 -88 -1 0 -13 26 -25 58 -61 154 -223
456 -333 622 -51 76 -147 211 -157 220 -3 3 -24 28 -45 55 -22 28 -42 52 -45
55 -3 3 -20 23 -39 45 -105 124 -305 316 -451 430 -177 140 -463 314 -630 383
-30 13 -64 27 -75 32 -176 79 -486 164 -680 186 -27 3 -56 7 -63 10 -22 7
-227 18 -327 17 -96 0 -267 -10 -325 -18 -183 -28 -241 -39 -345 -65 -920
-235 -1692 -919 -2128 -1885 -101 -225 -206 -536 -252 -754 -2 -9 -10 -48 -19
-87 -22 -103 -52 -294 -61 -394 -15 -158 -20 -265 -20 -455 0 -254 8 -375 40
-605 3 -22 19 -121 31 -191 3 -14 13 -60 23 -102 l18 -77 -71 -20 c-829 -238
-1556 -873 -1989 -1737 -135 -268 -280 -682 -331 -943 -3 -14 -12 -61 -21
-105 -9 -44 -18 -93 -20 -110 -2 -16 -8 -61 -14 -100 -30 -203 -36 -307 -36
-585 0 -220 4 -315 20 -460 26 -247 69 -466 141 -715 182 -630 499 -1176 940
-1619 87 -87 204 -193 274 -246 18 -14 38 -30 44 -35 11 -10 64 -49 161 -116
118 -83 291 -178 476 -262 157 -72 480 -171 624 -192 23 -3 52 -8 65 -10 33
-7 79 -14 175 -24 80 -9 518 -7 565 2 27 5 94 16 148 23 37 5 41 -9 17 -55 -8
-16 -16 -39 -19 -52 -3 -13 -18 -68 -35 -121 -16 -54 -27 -98 -25 -98 3 0 0
-8 -5 -17 -8 -16 -55 -231 -66 -303 -17 -105 -45 -340 -49 -410 -7 -99 -7
-449 -1 -530 9 -115 23 -256 29 -285 2 -11 7 -45 11 -75 8 -58 11 -79 20 -120
7 -34 14 -69 21 -105 29 -162 130 -481 221 -695 254 -598 670 -1114 1178
-1463 257 -176 582 -323 865 -392 95 -23 253 -54 311 -60 l56 -7 -13 -45 c-19
-61 -81 -346 -89 -403 -3 -25 -8 -52 -10 -60 -2 -8 -7 -46 -11 -85 -3 -38 -7
-72 -9 -75 -8 -13 -19 -263 -19 -435 -1 -169 9 -384 20 -438 2 -10 6 -45 9
-76 4 -31 8 -63 10 -71 2 -8 7 -37 11 -65 7 -58 11 -80 18 -103 3 -9 8 -33 11
-52 32 -187 142 -538 237 -755 239 -545 596 -1007 1036 -1343 360 -275 834
-481 1239 -537 21 -3 47 -7 58 -10 55 -11 219 -19 383 -19 147 0 182 -2 178
-13 -3 -7 -17 -52 -31 -100 -15 -49 -30 -99 -35 -113 -5 -14 -12 -36 -14 -50
-3 -14 -14 -62 -25 -107 -11 -45 -22 -93 -25 -107 -11 -61 -26 -143 -30 -171
-2 -16 -7 -48 -10 -70 -49 -315 -53 -716 -12 -1060 18 -149 66 -396 102 -525
8 -30 17 -64 19 -74 11 -49 82 -252 127 -365 307 -772 856 -1394 1529 -1731
189 -95 375 -164 580 -214 144 -35 334 -65 417 -66 25 0 25 7 -3 -140 -8 -41
-17 -91 -20 -110 -2 -19 -9 -64 -15 -100 -37 -240 -44 -719 -15 -945 2 -16 7
-57 10 -90 3 -33 8 -67 10 -75 3 -8 7 -33 10 -55 2 -22 7 -51 10 -65 2 -14 7
-36 10 -50 2 -14 7 -41 10 -60 3 -19 8 -43 11 -52 3 -9 6 -25 8 -35 2 -10 9
-38 16 -63 7 -25 14 -52 15 -60 42 -187 160 -498 278 -732 67 -133 205 -368
247 -422 5 -6 45 -59 89 -118 82 -110 99 -130 186 -226 407 -448 902 -751
1450 -886 55 -14 116 -27 135 -30 19 -3 62 -10 95 -16 220 -37 551 -34 835 7
128 18 438 108 565 164 119 52 252 118 332 165 102 60 238 149 261 171 7 7 17
13 20 13 4 0 19 10 32 22 14 13 46 39 70 58 98 75 304 275 395 383 28 33 55
64 61 70 69 75 242 331 337 498 208 368 366 819 431 1229 3 19 7 44 10 55 2
11 7 47 10 80 4 33 8 71 11 85 19 114 27 603 11 770 -18 194 -43 370 -70 482
-15 63 -12 72 24 75 124 7 198 16 325 38 354 62 765 236 1082 461 38 26 82 59
99 73 18 14 41 33 52 41 136 103 405 375 508 515 16 22 34 46 41 53 27 28 164
234 226 338 230 391 410 902 472 1344 3 25 8 56 10 70 5 35 15 130 25 225 8
83 6 608 -3 660 -3 17 -8 63 -12 103 -3 41 -8 83 -11 95 -2 12 -6 39 -9 62 -3
22 -12 74 -20 115 -8 41 -17 89 -20 105 -10 61 -75 303 -104 387 -16 48 -27
89 -23 92 4 2 31 6 60 10 234 28 507 103 722 198 353 158 633 351 910 628 378
379 659 840 839 1376 58 174 131 466 146 590 4 27 8 56 10 64 6 22 24 173 33
270 14 171 7 632 -12 775 -3 17 -8 55 -11 85 -13 102 -15 114 -30 185 -7 38
-17 86 -20 105 -3 19 -20 88 -36 154 -16 65 -28 120 -27 122 2 1 46 10 98 18
136 23 144 24 255 52 289 73 635 231 871 400 23 16 52 36 64 44 134 90 330
267 482 435 284 313 509 682 672 1102 20 51 36 95 36 97 0 3 4 15 9 28 5 13 9
25 9 28 0 3 7 22 15 43 9 20 14 37 11 37 -3 0 0 8 5 18 16 30 75 265 106 423
6 29 16 92 35 224 9 58 20 172 26 265 4 62 4 457 -1 500 -1 19 -6 70 -9 112
-6 67 -23 204 -42 318 -38 242 -144 609 -234 815 -27 61 -50 117 -50 121 0 2
44 1 98 -3 124 -9 382 -9 493 0 71 6 308 44 384 61 108 25 290 82 401 126 74
30 251 111 284 130 8 5 49 28 90 51 117 65 336 215 417 285 12 11 54 47 95 81
67 57 279 269 338 338 221 260 452 628 575 915 20 47 40 94 45 105 35 77 142
386 155 448 2 10 13 50 24 90 20 76 66 293 76 362 3 23 7 51 10 64 2 13 7 49
10 80 4 31 8 67 11 81 25 152 24 807 -2 925 -2 11 -6 43 -8 70 -9 91 -47 308
-71 405 -8 30 -16 66 -18 80 -11 60 -48 183 -107 355 -123 361 -310 720 -528
1015 -39 52 -74 100 -79 105 -5 6 -41 48 -80 95 -490 585 -1170 973 -1883
1075 -111 16 -185 20 -362 20 -109 0 -198 2 -198 5 0 4 4 10 9 15 31 33 182
499 216 665 2 8 10 49 19 90 17 83 22 113 31 180 3 25 8 52 10 60 2 8 7 47 11
85 3 39 8 72 9 75 9 15 19 260 19 445 0 219 -9 388 -28 515 -3 19 -8 55 -11
80 -3 25 -7 55 -9 66 -2 12 -7 38 -10 58 -5 31 -32 163 -41 201 -50 216 -109
410 -179 590 -85 218 -226 490 -363 700 -198 304 -474 606 -737 810 -22 17
-51 39 -65 51 -41 33 -201 138 -287 190 -293 173 -624 294 -974 355 -54 9 -76
12 -233 27 -136 14 -411 7 -572 -14 -197 -26 -486 -98 -620 -155 -11 -4 -60
-24 -109 -44 -238 -96 -512 -264 -760 -465 -74 -60 -267 -247 -356 -346 -28
-30 -147 -178 -218 -269 -20 -26 -151 -226 -177 -270 -137 -234 -235 -443
-338 -724 l-23 -64 -38 64 c-193 334 -487 683 -771 915 -217 177 -394 290
-625 401 -74 35 -144 68 -155 73 -109 46 -287 102 -420 133 -110 26 -130 30
-215 42 -24 4 -47 8 -50 10 -3 2 -50 7 -105 11 -179 15 -519 10 -620 -10 -11
-2 -45 -7 -75 -11 -30 -4 -62 -9 -70 -10 -459 -93 -855 -269 -1225 -548 -44
-34 -81 -64 -83 -69 -2 -4 -9 -8 -15 -8 -9 0 -12 114 -13 448 0 507 -7 663
-39 932 -3 27 -19 135 -20 140 -1 3 -5 30 -9 60 -5 30 -10 64 -12 75 -2 11 -7
34 -10 50 -3 17 -14 73 -25 125 -34 161 -34 160 -13 160 27 0 389 92 526 134
125 38 413 135 463 156 17 7 39 16 50 20 70 27 237 95 275 112 261 117 494
234 672 339 27 16 53 29 58 29 6 0 10 4 10 8 0 5 12 14 28 21 69 31 422 268
582 390 98 75 278 219 301 241 8 8 49 44 90 79 89 77 421 409 500 501 183 210
351 428 502 654 48 70 87 130 87 132 0 2 15 27 34 56 39 63 116 198 163 287
18 35 37 69 41 75 8 11 102 209 145 306 39 88 137 337 137 349 0 6 7 25 15 43
54 121 166 552 210 803 13 75 17 99 31 193 3 20 7 48 10 62 2 14 6 57 10 95 3
39 7 86 10 105 23 192 23 715 0 915 -2 17 -6 62 -10 100 -3 39 -8 81 -11 95
-2 14 -7 48 -11 75 -10 77 -11 85 -23 155 -20 108 -51 260 -72 345 -11 44 -22
90 -25 102 -8 41 -93 318 -128 418 -62 176 -93 250 -107 252 -8 1 -68 -7 -134
-17z m-10947 -14186 c2 -13 -3 -20 -16 -21 -15 -1 -18 4 -14 23 5 29 26 27 30
-2z"/>
</g>
</svg>
